<?xml version="1.0" encoding="iso-8859-1"?>
<!-- Generator: Adobe Illustrator 25.0.0, SVG Export Plug-In . SVG Version: 6.00 Build 0)  -->
<svg version="1.1" id="Layer_1" xmlns="http://www.w3.org/2000/svg" xmlns:xlink="http://www.w3.org/1999/xlink" x="0px" y="0px"
	 viewBox="0 0 283.46 283.46" style="enable-background:new 0 0 283.46 283.46;" xml:space="preserve">
<g>
	<path style="fill:#007AC9;" d="M-0.003,248.028c0,19.488,15.945,35.434,35.434,35.434h212.598
		c19.489,0,35.434-15.946,35.434-35.434V35.43c0-19.488-15.945-35.432-35.434-35.432H35.431c-19.489,0-35.434,15.944-35.434,35.432
		V248.028z"/>
</g>
<g>
	<path style="fill:#FFFFFF;" d="M133.972,56.124c0,0-77.182,77.177-77.843,77.839c-0.661,0.731-3.221,3.421-3.221,7.768
		c0,4.348,2.56,7.106,3.212,7.758l0.002,0.002l77.85,77.848c4.285,4.285,11.232,4.285,15.52,0c4.283-4.285,4.283-11.234-0.002-15.52
		l-59.118-59.117l129.201,0.003c6.06,0,10.972-4.913,10.972-10.974c0-6.06-4.912-10.974-10.972-10.974H90.372l59.118-59.112
		c4.285-4.286,4.285-11.233,0.002-15.519C145.204,51.841,138.257,51.841,133.972,56.124"/>
</g>
</svg>
